<svg version="1.0" id="Layer_1" xmlns="http://www.w3.org/2000/svg" xmlns:xlink="http://www.w3.org/1999/xlink" x="0px" y="0px" width="374px" height="34.998px" viewBox="0 0 341 34.998" enable-background="new 0 0 341 34.998" xml:space="preserve">
<g>
	<g>
		<g>
			<path fill="#EEEEEE" d="M47.806,34.128V3.15h9.043v30.978H47.806L47.806,34.128z M256.268,34.128l-21.719-18.395v18.395h-7.634 V3.15h6.485l21.431,18.107V3.15h7.634v30.978H256.268L256.268,34.128z M303.503,13.145c-4.087-2.011-8.686-3.64-14.786-3.64 c-7.283,0-12.714,3.767-12.714,9.005c0,5.37,5.526,9.167,12.648,9.167c5.877,0,10.542-1.502,15.141-4.152v7.666 c-4.06,2.014-9.456,3.512-15.522,3.512c-12.394,0-22.135-6.324-22.135-16.192c0-9.71,9.934-15.938,22.104-15.938 c5.746,0,10.954,1.086,15.264,2.843V13.145L303.503,13.145z M107.15,34.128V3.15h30.212v6.64h-21.177v7.7h20.699v6.644h-20.699 v9.994H107.15L107.15,34.128z M308.965,34.128V3.15h31.363v6.64h-22.324v5.369h21.97V21.8h-21.97v5.684h22.228v6.645H308.965 L308.965,34.128z M168.756,22.505l12.491,11.623h-9.648c-2.138,0-3.544-0.67-4.664-1.756l-8.493-8.238 c-0.162-0.162-0.416-0.254-0.735-0.254h-5.781v10.248h-9.04V3.15h19.582c10.152,0,14.436,4.564,14.436,9.614 C176.902,18.637,171.664,21.448,168.756,22.505L168.756,22.505L168.756,22.505z M161.538,17.393c3.578,0,5.304-1.822,5.304-3.863 c0-2.045-1.533-3.74-5.304-3.74h-9.613v7.603H161.538L161.538,17.393z M91.182,22.505l12.486,11.623h-9.644 c-2.142,0-3.547-0.67-4.664-1.756l-8.497-8.238c-0.157-0.162-0.416-0.254-0.735-0.254h-5.777v10.248h-9.043V3.15h19.581 c10.156,0,14.436,4.564,14.436,9.614C99.324,18.637,94.086,21.448,91.182,22.505L91.182,22.505L91.182,22.505z M83.964,17.393 c3.574,0,5.3-1.822,5.3-3.863c0-2.045-1.533-3.74-5.3-3.74h-9.613v7.603H83.964L83.964,17.393z M33.663,34.128l-3.964-6.801 H12.391l-3.609,6.801H0.158L17.401,3.181h7.857l19.547,30.947H33.663L33.663,34.128z M15.838,20.876h10.091l-5.238-9.457 L15.838,20.876L15.838,20.876z M214.143,34.128l-3.867-6.801h-16.861l-3.482,6.801h-8.4l16.801-30.947h7.63l19.004,30.947 H214.143L214.143,34.128z M196.799,20.876h9.837l-5.11-9.457L196.799,20.876L196.799,20.876z"/>
		</g>
	</g>
</g>
</svg>
