<?xml version="1.0" standalone="no"?>
<!DOCTYPE svg PUBLIC "-//W3C//DTD SVG 20010904//EN"
 "http://www.w3.org/TR/2001/REC-SVG-20010904/DTD/svg10.dtd">
<svg version="1.0" xmlns="http://www.w3.org/2000/svg"
 width="512.000000pt" height="512.000000pt" viewBox="0 0 512.000000 512.000000"
 preserveAspectRatio="xMidYMid meet">
<metadata>
Created by potrace 1.11, written by Peter Selinger 2001-2013
</metadata>
<g transform="translate(0.000000,512.000000) scale(0.100000,-0.100000)"
fill="#000000" stroke="none">
<path d="M0 4910 c0 -115 1 -210 3 -210 1 0 32 6 69 14 57 12 75 12 112 1 25
-8 103 -20 175 -29 72 -8 140 -20 152 -27 14 -7 40 -9 73 -4 28 3 74 9 101 11
28 3 74 11 102 18 35 9 55 11 59 4 4 -5 17 -8 30 -5 14 2 27 0 30 -4 3 -5 21
-9 40 -9 44 0 164 -30 164 -40 0 -5 -6 -11 -12 -13 -7 -3 23 -6 67 -6 55 0 86
4 99 14 25 19 56 19 92 0 16 -8 54 -15 84 -15 46 0 57 4 75 26 14 18 33 27 65
31 26 3 55 15 70 28 14 13 54 46 89 74 59 46 69 51 115 51 48 -1 50 -2 31 -16
-11 -8 -44 -22 -72 -30 l-53 -15 0 -43 c0 -33 5 -47 21 -58 19 -12 20 -16 8
-36 -27 -44 9 -37 79 15 37 28 41 50 10 55 -37 5 -35 42 4 71 54 40 135 62
105 29 -27 -30 -20 -34 20 -12 29 15 57 20 120 20 77 0 84 -2 116 -30 19 -16
42 -30 51 -30 9 0 16 -3 16 -8 0 -4 14 -13 31 -21 31 -13 32 -19 18 -70 -3 -9
8 -17 27 -22 44 -12 71 -44 54 -64 -7 -8 -17 -15 -23 -15 -6 0 -19 -8 -29 -17
-17 -15 -20 -15 -46 10 -49 47 -74 26 -39 -31 l20 -34 -22 -21 c-20 -21 -22
-21 -52 -3 -36 21 -49 14 -24 -14 25 -28 15 -33 -41 -19 -34 9 -58 24 -85 53
-37 39 -38 40 -75 28 -26 -8 -42 -8 -49 -1 -16 16 15 29 71 29 37 0 54 4 58
15 3 9 21 25 41 36 19 12 35 27 35 35 0 19 -44 18 -60 -1 -14 -17 -55 -17 -55
0 0 6 14 15 32 20 44 15 51 24 29 41 -26 18 -158 20 -154 1 2 -6 -7 -28 -19
-48 -16 -28 -33 -41 -72 -54 -29 -9 -58 -14 -66 -11 -24 9 -17 -6 22 -46 40
-41 38 -58 -6 -41 -21 8 -36 7 -61 -3 -24 -10 -36 -11 -46 -3 -10 8 -6 17 22
41 42 37 38 49 -6 18 -17 -12 -52 -29 -78 -39 -26 -9 -69 -29 -97 -45 -204
-117 -216 -126 -197 -148 5 -7 12 -24 14 -38 2 -19 11 -26 38 -31 18 -4 39
-13 45 -21 14 -18 83 -48 118 -50 32 -3 31 -1 11 -40 -12 -23 -13 -32 -4 -38
9 -6 9 -9 0 -12 -15 -5 -6 -58 9 -58 23 0 60 44 69 82 10 39 16 45 72 71 71
33 100 68 81 99 -11 18 -9 24 13 47 15 15 36 47 49 72 l22 44 63 3 c58 3 65 1
101 -29 35 -30 37 -35 28 -60 -8 -20 -7 -31 2 -43 19 -23 33 -20 91 19 29 20
55 33 58 31 10 -10 22 -102 17 -126 -5 -21 2 -32 39 -62 57 -48 63 -75 34
-145 -22 -54 -22 -55 -3 -69 10 -8 24 -14 31 -14 17 0 23 -68 7 -81 -8 -8 -23
-7 -49 1 -20 7 -59 15 -86 19 l-48 6 61 68 c33 37 59 67 56 67 -2 0 -26 -9
-52 -21 -33 -15 -81 -23 -159 -29 -111 -7 -164 -24 -206 -67 -12 -12 -7 -11
25 3 56 24 115 30 115 12 0 -8 -7 -23 -15 -34 -18 -23 -19 -56 -3 -72 19 -19
63 -14 83 8 21 24 31 25 38 6 7 -18 -51 -53 -141 -86 -66 -24 -84 -21 -64 10
15 25 15 25 -74 -6 -74 -27 -120 -64 -110 -90 7 -17 -11 -29 -66 -44 -70 -19
-188 -126 -188 -171 0 -30 -35 -65 -139 -138 -34 -25 -76 -60 -93 -79 -29 -33
-30 -37 -23 -102 7 -69 -7 -150 -26 -150 -19 0 -49 83 -43 122 5 31 3 38 -19
53 -15 9 -31 14 -37 10 -6 -4 -26 0 -44 9 -37 17 -85 13 -123 -10 -15 -10 -39
-12 -80 -8 -57 6 -59 6 -138 -47 -60 -41 -81 -60 -83 -79 -1 -14 -12 -62 -24
-108 -25 -97 -18 -139 32 -192 27 -29 34 -31 68 -25 67 13 102 32 113 65 6 17
19 35 29 40 17 9 100 15 100 7 0 -2 -18 -48 -40 -103 -22 -54 -40 -102 -40
-105 0 -4 34 -9 75 -11 97 -4 112 -18 96 -82 -19 -77 -14 -130 15 -166 25 -29
30 -31 68 -24 59 10 76 8 109 -16 28 -21 29 -21 43 -3 8 10 22 32 29 50 11 24
31 40 81 63 64 31 87 34 67 8 -13 -16 -25 -78 -15 -78 4 0 19 21 34 46 l28 45
28 -21 c15 -11 53 -24 85 -30 31 -5 61 -11 65 -14 5 -3 25 0 44 6 38 11 33 15
181 -126 46 -44 92 -66 137 -66 17 0 44 -7 59 -15 36 -18 81 -71 81 -94 0 -10
9 -30 21 -45 11 -15 19 -33 16 -40 -3 -8 5 -24 19 -37 13 -12 24 -28 24 -36 0
-16 5 -16 30 -3 23 13 107 -25 115 -51 5 -14 23 -19 93 -24 78 -7 91 -11 123
-39 19 -17 56 -45 81 -63 62 -42 68 -73 33 -150 -14 -32 -44 -85 -66 -119 -37
-57 -40 -67 -49 -170 -18 -189 -45 -250 -129 -286 -25 -10 -71 -35 -103 -54
-57 -35 -58 -36 -58 -82 -1 -75 -16 -125 -48 -152 -15 -14 -34 -43 -40 -66
-20 -70 -52 -109 -94 -112 -22 -2 -47 3 -62 13 -16 11 -26 13 -31 6 -3 -6 -1
-11 5 -11 6 0 14 -8 17 -17 4 -10 15 -30 25 -44 38 -51 0 -108 -77 -116 -41
-5 -50 -12 -46 -37 5 -25 -12 -45 -42 -48 -24 -2 -32 -8 -32 -23 0 -11 10 -24
23 -30 23 -10 29 -29 12 -40 -6 -3 -10 -19 -10 -34 0 -16 -7 -34 -16 -42 -20
-16 -11 -57 18 -81 19 -17 110 -18 1599 -18 l1579 0 0 367 0 367 -82 -86 c-77
-79 -87 -86 -138 -96 -78 -15 -184 -32 -204 -32 -23 0 -57 59 -50 87 4 15 -11
58 -46 130 -41 84 -54 123 -60 178 -5 50 -19 98 -50 165 -59 131 -63 186 -20
300 29 78 31 89 21 140 -5 30 -13 70 -16 89 -6 39 -70 170 -114 235 -30 44
-31 45 -16 86 8 24 15 64 15 91 0 59 -23 79 -91 79 -42 0 -48 3 -59 30 -24 58
-83 65 -188 23 -55 -22 -80 -26 -138 -24 -47 1 -84 -3 -108 -13 l-37 -16 -88
64 c-71 53 -91 73 -110 115 -21 48 -52 86 -99 123 -16 13 -22 29 -22 56 0 21
-5 43 -11 49 -8 8 -7 17 4 34 33 53 40 97 27 180 -13 80 -7 109 30 169 6 8 19
33 31 55 33 61 78 112 110 125 47 20 89 75 89 117 0 31 8 44 65 98 50 48 65
69 65 90 0 40 -26 65 -60 59 -26 -6 -28 -4 -34 38 -4 25 -2 57 4 72 5 15 10
51 10 81 0 32 5 57 13 62 6 4 61 6 121 4 121 -3 126 -1 126 59 0 44 -20 73
-73 107 -41 26 -41 26 -17 35 13 5 38 7 54 6 27 -3 31 0 28 20 -3 21 -1 22 17
13 29 -16 37 -14 73 18 18 15 48 36 66 45 18 9 37 27 41 39 13 32 30 44 81 54
39 8 45 12 44 33 -1 14 -5 35 -9 47 -5 16 0 29 19 47 34 35 44 33 52 -10 5
-25 11 -34 21 -30 8 3 19 6 24 6 15 0 10 31 -12 77 l-21 44 -45 -27 c-44 -26
-47 -26 -80 -10 -26 12 -33 21 -28 35 3 11 1 22 -5 26 -23 14 -10 67 24 101
29 29 41 34 80 34 45 0 47 1 65 43 10 23 36 57 57 75 29 26 35 35 24 42 -21
13 -11 19 86 51 129 44 324 59 324 25 0 -6 44 -22 98 -35 53 -13 103 -26 110
-28 9 -4 12 48 12 241 l0 246 -2560 0 -2560 0 0 -210z m3665 150 c53 -17 84
-21 127 -17 32 3 56 1 53 -3 -3 -5 -44 -24 -91 -41 -83 -32 -85 -33 -78 -62 4
-20 1 -32 -11 -41 -10 -7 -16 -22 -13 -37 2 -19 -6 -29 -39 -51 -28 -18 -44
-37 -48 -55 -10 -48 -19 -55 -90 -73 -85 -22 -183 -59 -250 -93 -28 -15 -84
-35 -126 -45 -81 -21 -71 -13 -209 -164 -48 -54 -66 -58 -133 -29 -52 22 -65
49 -74 156 -7 89 12 141 57 156 37 13 41 34 4 25 -21 -6 -25 -4 -22 11 2 11
16 20 33 24 l30 6 -27 11 c-31 13 -34 23 -16 51 28 45 -15 74 -147 101 -158
32 -161 58 -12 79 43 6 83 11 89 11 6 0 8 9 5 19 -7 27 -22 25 373 62 63 6
140 15 170 19 30 5 127 7 215 5 134 -2 171 -6 230 -25z m-905 0 c-14 -4 -81
-20 -150 -35 -77 -16 -165 -44 -230 -71 -92 -40 -115 -45 -200 -50 -112 -6
-140 -11 -140 -24 0 -6 34 -10 80 -10 76 0 103 -11 60 -25 -12 -4 -68 -7 -126
-8 -90 -2 -107 1 -118 16 -16 21 -30 22 -47 1 -11 -13 -25 -15 -83 -9 -39 4
-74 9 -78 11 -10 7 13 54 26 54 28 0 56 -14 56 -26 0 -23 47 -17 53 6 6 23 55
28 85 9 14 -9 32 -8 75 5 63 18 83 36 40 36 -35 0 -53 16 -53 48 0 17 4 23 15
18 8 -3 30 3 47 13 24 14 64 21 148 26 63 4 135 10 160 15 61 10 412 11 380 0z
m-802 -98 c5 -30 -26 -41 -45 -16 -12 16 -11 20 4 32 23 16 37 11 41 -16z
m-354 -13 c-23 -22 -81 -39 -69 -20 11 19 67 51 78 44 5 -3 1 -14 -9 -24z
m235 20 c31 -11 42 -28 19 -30 -43 -4 -111 18 -102 32 7 12 45 11 83 -2z
m-422 -51 c-2 -18 6 -25 38 -36 34 -11 44 -11 77 4 34 15 38 15 53 0 24 -24
12 -33 -55 -40 -33 -4 -73 -12 -90 -17 -23 -9 -40 -7 -77 7 -27 10 -54 22 -61
27 -7 6 -30 13 -50 17 -22 4 -31 9 -22 13 12 4 156 40 182 46 4 0 7 -9 5 -21z
m-141 -113 c13 -14 33 -25 46 -25 13 0 36 -7 52 -15 26 -14 30 -13 58 10 17
14 36 24 42 22 14 -5 16 -126 1 -135 -5 -4 -62 -7 -125 -7 -82 -1 -126 -6
-152 -17 -34 -15 -37 -15 -54 3 -9 10 -23 19 -31 19 -18 0 -16 14 7 60 11 22
20 42 20 44 0 3 -21 -6 -46 -19 -56 -30 -99 -32 -113 -6 -9 16 -4 20 31 32 23
7 53 23 68 35 49 42 157 41 196 -1z m449 -5 c0 -21 -65 -61 -94 -58 -13 2 -31
14 -39 27 -16 23 -15 23 5 17 16 -5 25 -2 33 14 9 17 19 21 53 18 29 -2 42 -8
42 -18z m1781 -251 c5 -8 33 -10 93 -6 47 4 92 2 100 -2 35 -22 -25 -67 -104
-78 -51 -7 -91 9 -101 39 -3 11 -15 18 -30 18 -28 0 -32 15 -6 29 23 14 39 14
48 0z m490 -274 c-21 -31 -20 -35 4 -35 23 0 24 -4 10 -31 -9 -15 -4 -29 25
-70 19 -28 35 -55 35 -60 0 -5 11 -14 25 -19 26 -10 32 -24 15 -35 -5 -3 -10
-15 -10 -26 0 -10 -1 -19 -2 -20 -2 0 -37 -4 -78 -9 -41 -4 -86 -11 -100 -15
-25 -7 -25 -7 4 20 28 25 28 26 7 32 -24 6 -27 18 -6 27 8 3 12 12 9 19 -3 9
3 17 16 20 26 7 24 35 -5 51 -28 16 -49 47 -53 77 -2 20 5 33 28 53 18 14 40
26 50 26 10 0 22 5 25 10 3 6 9 10 12 10 3 0 -2 -11 -11 -25z m-108 -134 c25
-15 -9 -93 -49 -113 -60 -31 -119 -17 -72 17 14 11 15 15 4 28 -14 18 -7 37
15 37 7 0 19 9 26 20 13 21 52 26 76 11z m-2606 -1316 c18 -8 48 -26 66 -39
18 -14 38 -27 45 -29 26 -9 -7 -21 -68 -25 -64 -4 -65 -4 -65 21 0 31 -25 51
-93 73 l-49 16 -28 -27 c-15 -15 -30 -23 -33 -17 -10 14 21 50 46 54 38 5 144
-10 179 -27z m299 -121 c27 -25 24 -34 -13 -34 -18 0 -46 -7 -61 -15 -22 -11
-39 -12 -69 -6 -52 12 -55 17 -19 29 23 8 31 17 31 35 0 23 2 23 56 16 31 -4
64 -15 75 -25z"/>
<path d="M5037 4530 c8 -18 30 -38 47 -45 36 -15 44 -12 26 10 -9 11 -9 15 -1
15 7 0 11 10 9 23 -3 19 -10 22 -50 25 l-47 3 16 -31z"/>
<path d="M4714 4532 c-6 -4 -16 -17 -23 -30 -6 -12 -29 -33 -50 -46 -21 -13
-44 -38 -51 -56 -12 -29 -11 -33 15 -60 l28 -29 -31 -26 c-20 -17 -32 -37 -34
-58 -2 -22 -11 -35 -28 -44 -14 -7 -24 -20 -22 -28 3 -13 -1 -14 -17 -6 -31
17 -47 13 -66 -15 l-17 -27 26 7 c15 4 35 2 46 -4 14 -8 32 -5 71 10 39 16 54
18 65 9 11 -9 21 -8 44 1 27 11 30 17 30 57 0 46 20 67 43 44 30 -30 61 7 33
38 -23 25 -8 34 68 41 38 3 61 10 64 19 4 12 -12 13 -92 7 -116 -9 -126 -4
-126 64 0 46 2 50 50 84 28 20 48 41 45 46 -7 12 -55 13 -71 2z"/>
<path d="M0 3993 l0 -327 41 55 c22 30 54 80 70 112 l30 58 -26 30 c-31 37
-33 64 -5 56 19 -5 20 0 20 69 0 41 1 77 3 82 1 4 -10 8 -24 10 -26 3 -26 4
-21 71 4 60 2 71 -17 90 -11 11 -32 21 -46 21 l-25 0 0 -327z"/>
<path d="M5013 3763 c-57 -74 -69 -132 -30 -151 42 -21 64 -22 100 -7 l37 15
0 63 c0 35 -3 67 -7 71 -4 4 -8 15 -8 24 0 12 -10 18 -31 20 -26 3 -36 -3 -61
-35z"/>
<path d="M4457 3773 c-14 -13 -6 -47 18 -79 22 -29 83 -74 149 -110 30 -16 29
-30 -1 -29 -25 0 -28 -3 -25 -31 3 -24 -3 -36 -22 -52 -14 -11 -26 -28 -26
-37 0 -14 -6 -16 -27 -10 -16 3 -39 14 -53 23 l-25 17 49 5 c63 6 87 35 58 70
-10 12 -43 37 -73 54 -30 18 -69 52 -88 77 -18 24 -40 45 -47 47 -8 2 -28 -6
-44 -18 -22 -16 -47 -23 -88 -24 -53 -1 -57 -3 -60 -27 -2 -15 -14 -32 -32
-42 -37 -22 -80 -74 -80 -97 0 -27 -61 -75 -118 -94 -48 -16 -69 -37 -56 -57
3 -5 29 -9 58 -9 40 0 60 6 85 25 19 13 54 27 80 30 25 3 92 13 149 22 118 18
146 12 156 -35 4 -16 2 -42 -4 -58 -10 -25 -9 -31 10 -46 12 -10 41 -23 63
-29 23 -6 58 -23 78 -39 20 -16 50 -32 65 -35 16 -4 39 -11 51 -17 32 -16 55
-4 47 25 -4 19 1 29 22 46 36 29 54 27 165 -15 89 -34 102 -36 163 -29 l66 7
0 99 c0 109 -8 124 -54 99 -17 -9 -28 -9 -42 -1 -11 6 -31 15 -45 20 -21 8
-33 25 -54 80 -28 74 -48 88 -75 56 -9 -11 -16 -12 -25 -5 -25 21 -25 -8 0
-38 31 -37 31 -43 2 -70 -30 -28 -43 -28 -58 1 -7 12 -27 37 -45 55 -20 19
-34 43 -34 57 0 41 -11 55 -80 99 -37 24 -82 62 -100 85 -34 41 -41 46 -53 34z"/>
<path d="M0 1653 l0 -1653 848 0 c830 1 847 1 825 19 -18 15 -23 30 -23 65 0
34 4 46 15 46 18 0 19 28 4 67 l-12 28 -6 -25 c-9 -34 -18 -17 -43 87 -16 65
-22 123 -23 223 -2 169 -29 548 -45 616 -10 48 -16 54 -83 101 -96 67 -123 96
-159 168 -32 63 -73 134 -145 249 -46 75 -53 109 -26 138 14 16 15 23 5 38 -7
11 -12 29 -12 40 0 33 31 100 51 111 11 5 19 14 19 19 0 5 11 26 25 46 20 29
25 49 25 98 0 64 -23 141 -46 150 -18 7 -44 -20 -44 -45 0 -24 2 -24 -62 8
-56 28 -138 99 -138 119 0 7 -12 30 -26 52 -22 34 -35 42 -90 57 -45 12 -77
29 -110 58 -42 37 -50 40 -99 38 -39 -1 -66 4 -102 22 -83 40 -147 79 -181
111 -30 28 -32 33 -26 78 6 46 5 50 -45 114 -28 37 -51 74 -51 83 0 9 -16 47
-35 85 -19 39 -35 79 -35 90 0 44 -44 70 -54 32 -7 -27 -2 -43 53 -199 23 -65
39 -122 36 -128 -9 -14 -65 66 -65 93 0 12 -16 39 -37 60 -29 30 -34 40 -24
51 9 11 8 28 -4 73 -8 32 -15 73 -15 90 0 17 -9 42 -20 55 -19 24 -19 16 -20
-1628z"/>
</g>
</svg>
