<?xml version="1.0" standalone="no"?>
<!DOCTYPE svg PUBLIC "-//W3C//DTD SVG 20010904//EN"
 "http://www.w3.org/TR/2001/REC-SVG-20010904/DTD/svg10.dtd">
<svg version="1.0" xmlns="http://www.w3.org/2000/svg"
 width="1280.000000pt" height="640.000000pt" viewBox="0 0 1280.000000 640.000000"
 preserveAspectRatio="xMidYMid meet">
<metadata>
Created by potrace 1.15, written by Peter Selinger 2001-2017
</metadata>
<g transform="translate(0.000000,640.000000) scale(0.100000,-0.100000)"
fill="#a58646" stroke="none">
<path d="M4875 6361 c-49 -3 -99 -11 -110 -17 -11 -6 -90 -14 -175 -17 -141
-5 -378 -32 -390 -45 -3 -2 1 -7 8 -9 13 -5 17 -33 5 -33 -5 -1 -57 -7 -117
-14 -116 -15 -141 -28 -107 -57 18 -15 48 -22 194 -48 99 -18 141 -65 102
-117 -22 -30 -18 -40 23 -51 l37 -10 -42 -8 c-34 -6 -43 -12 -43 -28 0 -17 5
-19 34 -14 28 4 34 3 29 -9 -3 -8 -15 -14 -28 -14 -14 0 -33 -13 -49 -34 -24
-31 -26 -43 -26 -124 0 -100 22 -190 48 -198 9 -3 36 -14 59 -25 58 -29 94
-19 136 35 18 24 61 74 95 111 l62 68 98 22 c71 16 113 32 152 58 53 35 278
112 345 119 28 3 30 6 33 45 3 45 24 69 93 106 24 14 29 21 20 27 -18 10 -6
60 14 60 23 0 27 18 10 49 -17 34 -15 36 55 57 27 8 78 28 112 45 l63 30 -70
-6 c-38 -3 -80 -8 -92 -11 -12 -2 -25 2 -30 10 -4 7 -50 23 -101 35 -97 22
-233 25 -447 12z"/>
<path d="M3910 6339 c-82 -15 -340 -39 -355 -33 -9 4 -34 -6 -57 -22 -28 -20
-43 -25 -45 -16 -9 25 -23 11 -23 -22 0 -44 30 -68 73 -59 58 12 18 -16 -54
-37 -63 -19 -73 -20 -87 -6 -10 8 -35 16 -57 18 -37 3 -40 1 -45 -27 -4 -25
-10 -30 -35 -30 -22 0 -29 4 -27 17 3 19 -2 23 -45 32 -29 7 -33 4 -48 -24 -9
-18 -15 -34 -12 -36 2 -3 44 -9 93 -15 l89 -10 21 27 c21 26 48 26 38 1 -8
-22 109 -39 179 -28 32 6 71 8 85 5 29 -6 73 19 59 33 -5 4 -53 8 -107 8 -97
0 -98 0 -71 18 21 15 43 17 116 15 50 -1 95 1 102 5 6 4 18 4 27 1 8 -3 59 15
113 41 98 47 178 73 308 100 174 35 195 40 195 45 0 9 -382 8 -430 -1z"/>
<path d="M3323 6240 c-20 -8 -21 -12 -12 -34 11 -23 42 -40 53 -28 3 3 6 20 6
39 0 35 -8 39 -47 23z"/>
<path d="M2927 6224 c-16 -8 -37 -24 -48 -35 -19 -19 -19 -19 7 -19 32 0 96
38 91 53 -5 17 -20 17 -50 1z"/>
<path d="M3137 6233 c-15 -15 -4 -23 48 -38 41 -12 59 -14 75 -5 28 15 19 25
-34 39 -51 13 -80 14 -89 4z"/>
<path d="M2650 6168 c-41 -11 -92 -22 -112 -25 -46 -6 -40 -23 8 -23 21 0 42
-8 54 -20 11 -11 29 -20 39 -20 11 0 33 -8 49 -17 29 -17 33 -17 79 0 26 9 74
17 105 17 41 0 61 5 74 18 17 16 17 17 0 20 -10 2 -15 10 -12 18 8 20 -17 17
-59 -7 -37 -22 -51 -22 -119 4 -22 8 -34 17 -27 21 12 8 15 36 4 35 -5 0 -42
-10 -83 -21z"/>
<path d="M8720 6171 c-14 -4 -25 -12 -25 -19 0 -22 -28 -32 -91 -32 -64 0
-218 -25 -244 -40 -13 -8 -13 -10 3 -15 37 -15 13 -25 -60 -25 l-78 -1 35 -29
c19 -17 46 -30 60 -30 23 -1 23 -2 6 -12 -14 -8 -27 -7 -53 6 -33 16 -104 22
-116 10 -11 -12 5 -34 26 -34 15 0 18 -3 10 -11 -19 -19 -52 1 -73 42 -11 22
-28 39 -37 39 -14 0 -13 -4 6 -24 19 -20 20 -24 7 -29 -23 -9 -19 -31 7 -42
12 -6 23 -20 25 -32 5 -35 27 -47 64 -34 21 8 35 8 42 1 10 -10 -3 -14 -31
-11 -18 2 -26 -18 -14 -33 20 -24 -7 -66 -41 -66 -30 0 -38 14 -13 24 22 8 19
59 -5 74 -11 6 -28 29 -39 51 -11 21 -27 41 -36 44 -8 4 -15 18 -15 32 0 18
-5 25 -19 25 -11 0 -27 7 -35 16 -24 24 -54 9 -62 -31 -3 -18 -13 -36 -21 -40
-14 -5 -14 -7 -1 -23 8 -9 18 -24 21 -34 3 -9 20 -19 37 -23 28 -6 50 -29 38
-40 -2 -2 -38 7 -79 21 -40 14 -99 28 -129 31 -30 3 -65 12 -77 19 -12 8 -29
14 -38 14 -28 0 -15 -17 26 -33 37 -14 40 -19 29 -32 -12 -15 -15 -14 -24 4
-9 16 -15 18 -31 9 -11 -7 -35 -15 -55 -19 -19 -3 -43 -10 -52 -14 -13 -5 -18
-2 -18 9 0 9 -7 16 -16 16 -25 0 -148 -51 -160 -66 -12 -15 -46 -19 -57 -7 -4
3 -2 12 4 20 18 21 -8 43 -51 43 l-38 0 24 -46 c27 -52 25 -62 -9 -47 -18 8
-28 7 -46 -8 -13 -11 -30 -19 -38 -19 -10 0 -12 -6 -8 -19 6 -21 -10 -38 -20
-21 -8 13 -85 13 -85 0 0 -5 11 -12 25 -16 14 -3 25 -11 25 -16 0 -13 -46 -2
-85 21 -17 10 -30 25 -30 37 0 10 -9 24 -20 31 -19 12 -19 12 5 12 14 0 50 -4
80 -8 70 -11 130 9 130 43 0 20 -8 25 -57 35 -32 7 -107 26 -166 42 -60 17
-115 28 -124 25 -10 -4 -13 -1 -8 13 5 16 -2 21 -42 29 -33 7 -52 7 -60 0 -8
-6 -31 -8 -56 -5 -48 7 -162 -19 -274 -61 -69 -26 -91 -42 -58 -42 8 0 15 -4
15 -10 0 -10 -51 -60 -61 -60 -9 0 -49 -68 -49 -82 0 -24 -32 -48 -50 -38 -51
27 -160 -51 -160 -116 0 -19 6 -37 13 -40 8 -3 12 -16 9 -33 -3 -24 1 -30 31
-44 45 -22 44 -22 96 13 50 34 61 37 61 15 0 -9 11 -33 25 -54 26 -38 25 -71
0 -71 -7 0 -20 -3 -28 -6 -12 -4 -14 0 -10 14 2 11 0 23 -6 26 -5 4 -8 13 -4
21 9 25 -35 18 -62 -10 -29 -28 -31 -54 -9 -97 19 -38 11 -48 -47 -55 -65 -8
-97 -28 -101 -60 -2 -23 -13 -33 -56 -53 -28 -14 -55 -33 -58 -43 -3 -10 -20
-24 -37 -31 -27 -11 -36 -11 -59 1 -31 15 -32 14 -19 -20 9 -24 9 -25 -29 -20
-44 6 -90 -3 -90 -17 0 -5 21 -21 48 -34 60 -30 86 -78 76 -142 -4 -29 -12
-45 -24 -49 -26 -8 -183 -3 -203 7 -12 6 -29 5 -48 -4 -29 -13 -30 -15 -24
-63 4 -36 1 -65 -14 -105 -13 -37 -16 -60 -10 -72 5 -9 9 -29 9 -43 0 -25 2
-26 39 -20 36 6 40 4 58 -27 18 -31 19 -35 3 -70 -10 -24 -37 -52 -71 -77 -61
-44 -79 -73 -79 -130 0 -33 -7 -45 -50 -85 -27 -25 -58 -46 -69 -46 -11 0 -26
-10 -32 -22 -7 -13 -27 -40 -46 -61 -19 -21 -32 -45 -29 -52 2 -7 -8 -25 -24
-40 -15 -15 -31 -42 -34 -60 -4 -18 -13 -38 -21 -45 -19 -16 -19 -60 -1 -86
10 -13 11 -23 4 -31 -6 -8 -6 -18 1 -32 6 -11 11 -32 11 -48 -1 -37 -35 -136
-49 -141 -17 -6 -13 -29 5 -36 12 -5 15 -14 10 -40 -8 -44 8 -84 38 -95 34
-13 92 -88 107 -139 13 -46 26 -58 156 -150 l72 -51 43 19 c47 21 147 27 178
10 15 -8 36 -3 94 25 133 63 204 56 240 -23 l17 -39 53 5 c39 3 60 0 80 -13
23 -15 26 -24 26 -76 0 -34 -8 -79 -19 -107 l-20 -49 56 -84 c67 -99 137 -263
124 -288 -6 -10 -4 -28 5 -50 20 -48 17 -88 -12 -156 -66 -156 -63 -204 20
-380 51 -109 56 -126 56 -188 0 -59 5 -77 38 -140 79 -154 106 -227 82 -227
-13 0 32 -87 49 -95 7 -3 43 2 78 11 36 9 78 13 95 10 18 -3 41 0 58 9 16 8
42 15 58 15 30 0 72 40 198 186 66 77 66 77 73 143 6 54 8 57 58 89 44 29 53
40 58 73 4 22 1 69 -6 104 l-13 65 60 55 c32 30 79 66 104 79 71 38 78 50 86
151 6 83 4 100 -26 203 -42 150 -42 181 -3 265 35 74 168 235 239 288 44 33
149 192 200 303 43 94 43 203 1 167 -7 -5 -40 -14 -72 -20 -33 -5 -86 -18
-117 -29 l-57 -19 -26 27 c-15 16 -23 33 -20 42 7 18 -81 126 -147 180 -33 27
-48 49 -58 82 -7 24 -23 55 -36 67 -17 16 -24 33 -24 59 0 26 -15 63 -49 122
-27 47 -65 122 -84 166 -35 80 -35 81 -14 88 26 8 68 -38 128 -138 21 -37 43
-70 48 -73 6 -3 15 -30 21 -60 9 -44 20 -63 51 -92 21 -20 41 -45 45 -57 3
-12 19 -34 34 -51 49 -53 63 -99 18 -58 -15 14 -18 14 -18 1 0 -8 9 -23 20
-33 10 -9 29 -47 41 -84 12 -36 27 -69 33 -73 15 -11 69 1 82 18 6 8 25 14 43
14 28 0 48 7 91 32 8 5 43 22 76 39 34 16 64 38 66 47 3 11 26 24 61 35 37 12
58 24 62 37 4 11 12 20 20 20 22 0 75 60 75 85 0 15 7 25 21 28 12 3 18 10 14
16 -3 6 3 24 14 40 12 16 21 34 21 40 0 18 -63 70 -85 71 -37 1 -65 37 -65 84
0 35 -9 33 -55 -14 -38 -39 -104 -68 -125 -55 -6 3 -10 19 -10 34 0 15 -9 36
-20 46 -18 16 -20 16 -26 1 -9 -23 -23 -11 -44 38 -10 22 -29 52 -44 65 -32
30 -35 75 -7 91 39 21 57 12 92 -46 27 -45 46 -64 93 -89 60 -33 82 -34 120
-9 20 14 62 1 51 -16 -20 -33 87 -59 270 -66 l120 -5 40 -38 c22 -22 56 -47
75 -57 19 -9 29 -19 23 -21 -22 -8 -14 -30 22 -62 31 -27 38 -29 60 -19 14 6
25 19 25 29 0 10 4 20 9 23 10 7 21 -27 21 -70 0 -52 55 -223 119 -368 33 -76
65 -155 71 -177 15 -54 45 -62 80 -19 23 28 29 31 46 20 16 -10 20 -24 20 -68
1 -41 6 -59 19 -69 16 -11 21 -10 36 3 10 9 22 29 28 44 8 25 5 35 -19 68 -35
48 -50 59 -60 42 -9 -15 -30 -5 -30 15 0 7 6 15 14 18 12 5 14 31 13 133 l-2
127 27 9 c15 5 30 17 33 27 3 10 30 38 59 64 30 26 58 56 61 67 4 11 20 27 36
35 20 11 29 23 29 39 0 34 17 43 85 44 47 0 63 5 76 21 19 23 31 15 44 -29 12
-42 54 -90 71 -83 13 5 15 2 9 -16 -5 -17 0 -27 19 -42 22 -18 26 -28 26 -75
0 -49 2 -54 26 -60 17 -5 32 -1 47 13 58 50 53 53 86 -54 39 -127 52 -185 43
-198 -4 -5 -7 -39 -7 -75 0 -56 2 -65 17 -62 27 4 98 -113 91 -150 -7 -36 34
-98 83 -124 19 -11 42 -29 50 -41 35 -54 47 -7 14 57 -11 22 -20 55 -20 74 0
39 -54 111 -114 152 -24 17 -36 32 -36 49 0 13 -12 38 -26 55 l-27 31 16 57
c9 31 18 68 19 82 4 36 34 33 31 -3 -2 -24 1 -27 19 -22 15 5 31 -4 64 -37 24
-23 44 -48 44 -55 0 -6 10 -13 23 -15 17 -2 22 -10 24 -36 1 -19 3 -35 5 -38
8 -7 78 57 78 72 0 7 11 16 24 20 13 3 36 19 51 34 25 27 27 34 22 83 -7 73
-22 99 -112 197 -49 53 -75 90 -75 105 0 36 77 105 117 105 27 0 32 -4 35 -27
4 -36 38 -45 38 -11 0 25 41 51 66 41 8 -3 22 1 32 8 15 13 51 31 107 55 47
20 113 108 139 184 31 92 45 191 25 173 -18 -18 -43 -16 -35 2 3 8 9 22 12 30
4 10 0 15 -11 15 -11 0 -15 5 -11 15 7 19 -73 113 -123 146 l-24 15 32 47 c20
29 39 47 51 47 11 0 20 6 20 14 0 20 -77 25 -111 7 -24 -12 -28 -11 -52 13
-14 14 -33 26 -42 26 -25 0 -17 16 35 70 48 50 77 58 67 19 -5 -20 13 -69 25
-69 4 0 12 8 17 19 13 24 52 34 85 21 21 -8 26 -16 26 -44 0 -33 2 -34 50 -46
44 -10 50 -15 44 -32 -4 -13 0 -24 12 -32 11 -8 17 -26 17 -47 0 -52 12 -61
55 -43 20 8 44 22 53 30 16 15 16 19 -4 66 -16 39 -32 58 -78 89 -32 21 -60
43 -63 47 -3 5 6 20 19 32 18 17 25 34 25 62 0 42 31 84 56 74 8 -3 20 -9 28
-12 24 -9 64 38 80 98 9 31 16 87 16 125 0 63 -4 77 -43 149 -64 118 -68 123
-116 145 -52 23 -77 24 -85 4 -9 -24 -20 -18 -45 23 -22 36 -22 36 -16 7 6
-28 6 -29 -13 -12 -10 9 -26 17 -35 17 -26 0 -30 18 -9 45 11 14 23 42 26 62
14 77 23 90 73 97 80 11 253 7 253 -5 0 -8 17 -10 56 -6 55 6 80 16 58 24 -37
13 -44 27 -32 66 10 34 15 37 47 37 26 0 44 -8 68 -32 l33 -32 24 23 c20 19
23 26 13 42 -12 20 -5 35 12 24 6 -3 18 -19 26 -35 13 -25 13 -33 0 -70 -8
-24 -15 -51 -15 -61 0 -10 -8 -24 -18 -30 -17 -11 -18 -15 -5 -53 9 -24 31
-54 56 -76 23 -19 79 -70 125 -113 46 -43 87 -75 93 -72 13 9 11 62 -3 71 -8
5 -5 11 7 20 17 13 17 15 2 32 -19 20 -7 50 14 36 8 -4 2 7 -13 25 -31 36 -36
53 -13 45 31 -12 14 13 -20 29 -19 9 -35 23 -35 32 0 8 -12 17 -27 21 -49 10
-54 14 -51 32 2 11 -3 26 -10 34 -10 13 -8 17 19 28 25 11 35 11 51 1 17 -10
23 -9 39 5 18 16 22 16 59 1 27 -10 40 -12 40 -4 0 23 53 86 82 98 23 9 38 10
59 2 50 -19 43 6 -8 27 -26 11 -62 28 -80 37 -31 16 -31 17 -12 31 12 8 18 20
15 29 -5 13 2 14 46 8 29 -4 67 -16 85 -26 37 -23 133 -38 133 -21 0 6 -8 16
-17 21 -16 9 -16 12 -3 21 25 17 -10 35 -92 49 -40 6 -158 34 -263 61 -104 27
-246 56 -315 65 -69 9 -133 18 -144 20 -15 3 -13 -2 10 -26 l29 -31 -25 6
c-102 21 -144 26 -239 26 -93 0 -110 3 -125 19 -23 25 -46 29 -221 40 -86 6
-165 16 -185 24 -39 16 -307 43 -318 32 -4 -3 4 -15 18 -26 l25 -21 -93 7
c-51 3 -99 8 -107 11 -11 5 -15 -1 -15 -20 0 -14 -2 -26 -4 -26 -16 0 -106 47
-126 66 -25 23 -138 54 -197 54 -21 0 -24 -2 -13 -15 11 -13 3 -15 -58 -15
-39 0 -74 5 -77 10 -3 6 -38 10 -77 10 -54 0 -76 5 -98 20 -28 20 -50 19 -80
-5 -15 -12 -80 -29 -80 -20 0 2 23 16 50 31 49 27 57 38 42 59 -12 17 -99 35
-171 35 -52 0 -70 4 -75 15 -6 16 -87 20 -136 6z m-2030 -464 c0 -6 -27 -30
-60 -52 l-59 -40 1 -57 c1 -86 14 -95 125 -78 128 19 159 16 134 -14 -8 -10
-31 -14 -74 -14 -34 1 -73 -4 -86 -12 l-25 -13 23 -18 c17 -14 22 -25 17 -44
-7 -29 -18 -32 -36 -10 -7 8 -20 15 -30 15 -30 0 -43 -26 -36 -70 6 -38 5 -40
-33 -60 -39 -19 -40 -19 -53 -1 -13 19 -15 18 -68 -5 -65 -28 -86 -29 -98 -8
-8 15 -12 15 -41 -1 -39 -20 -49 -15 -21 10 11 10 20 24 20 31 0 15 55 9 78
-9 8 -6 12 -6 12 1 0 6 -5 14 -10 17 -16 10 -1 25 26 25 27 0 46 34 38 66 -5
23 2 34 44 63 17 12 32 25 32 29 0 4 -14 15 -30 24 -60 34 -26 119 63 156 15
6 27 17 27 25 0 7 7 23 16 35 12 17 25 22 60 22 29 0 44 -4 44 -13z m559 -852
c-12 -19 -25 -35 -30 -35 -24 0 -3 -22 49 -51 60 -34 142 -105 142 -125 0 -6
-8 -18 -17 -26 -24 -21 -143 -9 -199 20 -39 20 -44 20 -104 6 -35 -8 -69 -19
-76 -25 -17 -14 -78 -1 -107 22 -18 14 -23 25 -19 48 2 17 8 31 12 31 5 0 11
13 15 29 3 16 13 32 21 35 8 3 14 11 14 19 0 7 10 23 23 35 18 17 30 20 60 15
37 -6 46 -16 27 -28 -7 -4 0 -17 16 -32 21 -20 31 -23 48 -15 12 5 32 14 46
20 17 7 19 11 8 11 -44 2 -25 55 25 70 63 18 69 15 46 -24z m525 20 c36 -15
45 -36 27 -64 -5 -7 -13 -11 -19 -7 -15 9 -42 -4 -42 -19 0 -7 -5 -15 -11 -17
-6 -2 14 -26 45 -53 38 -33 56 -56 56 -72 0 -27 8 -29 26 -5 13 16 15 16 34
-7 27 -32 25 -41 -9 -41 -44 0 -46 -16 -8 -52 27 -26 36 -44 40 -80 l6 -46
-48 -7 c-48 -6 -91 5 -91 25 0 5 -12 10 -26 12 -38 4 -53 32 -31 56 9 10 17
28 17 39 0 12 6 23 13 26 7 2 -16 30 -55 66 -54 50 -68 69 -68 92 0 19 -5 29
-15 29 -8 0 -15 8 -15 17 0 19 38 63 54 63 6 1 27 14 46 30 19 17 35 30 36 30
1 0 18 -7 38 -15z m-1360 -149 c17 -13 59 -40 94 -61 57 -33 62 -39 62 -71 0
-46 23 -90 57 -106 17 -8 30 -25 35 -45 5 -18 13 -33 17 -33 5 0 16 -3 25 -6
11 -4 16 -1 16 10 0 8 11 23 25 32 32 21 31 27 -5 64 -16 17 -30 37 -30 45 0
18 12 19 28 3 8 -8 16 -6 30 12 29 36 55 20 75 -48 28 -89 40 -112 61 -112 10
0 36 -10 58 -22 37 -21 40 -21 49 -5 12 21 39 22 65 2 10 -8 28 -14 39 -14 11
0 29 6 39 14 11 8 32 15 48 15 24 0 28 -4 30 -27 3 -56 -4 -89 -29 -146 -34
-76 -50 -86 -124 -80 -36 4 -75 1 -98 -7 -36 -11 -45 -9 -169 39 -126 50 -132
51 -165 38 -46 -20 -70 -53 -55 -80 16 -31 -27 -52 -51 -23 -6 7 -32 16 -58
19 -29 3 -52 12 -62 24 -28 35 -78 63 -113 63 -21 1 -44 11 -66 29 -32 27 -32
28 -18 62 18 43 3 104 -29 114 -27 9 -91 6 -140 -7 -22 -5 -82 -14 -133 -19
-98 -9 -121 -17 -162 -54 -23 -21 -32 -23 -93 -18 -62 5 -68 8 -65 27 3 23 34
41 95 56 45 11 129 82 118 100 -12 20 39 92 80 112 46 24 57 36 49 60 -8 26
41 43 85 29 30 -9 39 -7 77 19 58 41 79 39 103 -9 24 -46 68 -85 128 -113 40
-19 93 -69 93 -87 0 -5 -9 -20 -21 -34 -18 -23 -25 -26 -63 -21 -67 10 -67
-12 0 -41 31 -14 58 -25 60 -25 2 0 4 14 4 30 0 22 5 30 18 30 10 0 26 13 35
30 14 24 16 34 7 51 -17 30 1 46 35 31 21 -10 25 -9 25 4 0 8 -21 24 -47 35
-27 11 -52 27 -56 35 -4 8 -16 14 -26 14 -18 0 -53 34 -89 87 -26 37 -27 51
-6 74 16 18 18 16 47 -27 16 -25 44 -55 61 -68z"/>
<path d="M2364 6062 c-6 -4 -13 -14 -16 -23 -4 -9 -36 -27 -71 -40 l-66 -24
19 -25 c17 -23 20 -23 70 -12 29 7 63 21 77 32 41 32 44 24 13 -34 -17 -30
-30 -57 -30 -61 0 -3 14 -11 30 -16 17 -6 30 -17 30 -25 0 -18 23 -18 58 0 53
26 190 36 258 17 25 -7 38 -4 63 11 36 23 36 22 15 52 -10 16 -12 26 -5 31 6
3 11 24 11 47 0 38 -1 40 -26 34 -14 -4 -36 -19 -49 -34 -22 -25 -24 -26 -42
-10 -10 9 -41 20 -69 23 -42 6 -54 12 -68 36 -17 28 -19 29 -104 29 -48 0 -92
-4 -98 -8z"/>
<path d="M2987 6043 c-4 -3 -7 -15 -7 -25 0 -20 -11 -23 -27 -7 -6 6 -16 8
-22 4 -7 -4 0 -17 19 -36 32 -33 43 -33 111 2 24 12 38 27 41 44 5 24 4 25
-52 25 -31 0 -60 -3 -63 -7z"/>
<path d="M3146 6020 c-13 -17 -53 -49 -87 -71 -34 -23 -64 -50 -67 -61 -4 -16
-11 -19 -37 -14 -43 8 -105 -18 -105 -44 0 -18 -7 -20 -62 -21 -94 -2 -111 1
-134 22 -19 18 -25 19 -68 7 -25 -7 -46 -18 -46 -25 0 -10 -25 -13 -102 -12
-82 0 -98 3 -80 11 43 21 35 26 -109 58 -32 7 -69 10 -83 6 -19 -5 -26 -3 -26
9 0 12 -5 13 -27 4 -22 -8 -30 -7 -40 7 -8 11 -18 14 -30 9 -42 -17 -170 -40
-193 -35 -14 3 -41 0 -60 -7 -48 -17 -86 -16 -116 3 -16 11 -61 19 -132 25
-138 10 -264 32 -287 49 -13 10 -155 -20 -275 -58 -52 -17 -111 -33 -130 -37
-65 -12 -71 -16 -65 -36 3 -10 8 -28 11 -39 4 -17 1 -20 -25 -20 -17 0 -31 4
-31 9 0 5 -37 0 -82 -13 -63 -17 -83 -27 -89 -44 -7 -18 -4 -23 16 -28 14 -3
43 -4 65 -2 31 3 39 0 35 -10 -3 -8 -5 -17 -5 -22 0 -4 -21 -10 -47 -13 -128
-13 -230 -56 -266 -111 -27 -41 -22 -57 14 -49 l31 6 -17 -27 c-16 -23 -16
-26 -1 -20 20 8 86 -4 86 -15 0 -8 -390 -161 -412 -161 -7 -1 -24 -7 -38 -15
-25 -14 -25 -14 10 -9 119 19 323 78 394 114 43 22 89 40 101 40 31 0 117 28
139 45 16 12 17 17 6 30 -11 13 -9 15 14 15 14 0 49 9 78 20 28 11 53 18 55
16 2 -2 -15 -15 -37 -30 -22 -14 -40 -28 -40 -30 0 -7 128 24 176 42 48 19 51
19 84 2 19 -10 58 -21 87 -25 74 -10 87 -33 80 -137 l-5 -78 34 0 c32 0 33 -1
23 -27 -7 -17 -8 -55 -4 -97 l6 -69 -25 7 c-39 10 -38 -23 2 -66 27 -28 33
-40 24 -50 -5 -7 -20 -38 -32 -68 -12 -30 -46 -82 -75 -116 -30 -33 -57 -74
-61 -90 -4 -16 -18 -45 -33 -64 -30 -41 -32 -68 -18 -203 l11 -99 42 -29 c48
-33 50 -37 60 -134 4 -38 13 -84 21 -103 13 -31 12 -35 -3 -47 -15 -11 -15
-15 -3 -32 8 -11 28 -32 45 -46 24 -20 30 -33 27 -51 -4 -18 4 -36 26 -63 17
-21 31 -43 31 -50 0 -7 5 -13 10 -13 21 0 22 33 3 74 -11 22 -23 55 -27 73 -4
17 -22 70 -41 117 -25 64 -32 95 -28 121 3 19 7 35 9 35 1 0 14 -4 27 -9 20
-8 25 -18 30 -62 5 -36 17 -69 42 -106 21 -31 35 -65 35 -83 0 -23 15 -48 60
-101 49 -57 60 -76 60 -105 0 -19 -4 -43 -9 -52 -5 -9 -5 -26 -1 -38 10 -25
100 -94 123 -94 9 0 20 -6 24 -14 12 -20 150 -87 181 -88 15 0 44 3 65 7 36 7
40 6 86 -42 47 -49 58 -54 179 -86 30 -8 44 -18 48 -34 3 -12 14 -29 25 -39
10 -9 19 -28 19 -41 0 -31 102 -127 138 -130 14 -1 35 -12 48 -24 27 -26 59
-19 51 11 -6 23 26 55 48 46 8 -3 18 -14 21 -23 3 -10 12 -30 20 -45 17 -32
19 -170 2 -201 -6 -12 -19 -28 -30 -35 -10 -7 -18 -22 -18 -33 0 -11 -10 -24
-22 -30 -32 -14 -72 -118 -59 -152 5 -14 15 -28 20 -32 7 -4 2 -18 -15 -40
-24 -31 -24 -36 -13 -77 7 -24 25 -56 40 -73 15 -16 39 -55 54 -85 15 -30 40
-73 55 -95 15 -22 48 -81 73 -132 46 -91 47 -92 154 -168 59 -43 110 -79 111
-81 2 -1 12 -51 23 -111 12 -74 18 -158 19 -266 0 -116 4 -173 17 -218 14 -52
15 -77 6 -187 -9 -113 -8 -131 7 -162 9 -19 20 -60 24 -90 9 -81 25 -130 42
-130 10 0 13 7 8 25 -4 14 -2 25 4 25 6 0 15 -23 21 -50 14 -64 14 -63 -3 -57
-21 8 -42 -19 -28 -36 7 -8 9 -29 5 -50 -4 -29 -2 -37 9 -37 25 0 41 -26 29
-48 -8 -16 0 -34 45 -100 31 -45 84 -107 118 -140 59 -54 68 -60 161 -84 l98
-25 34 19 c18 11 33 23 33 27 0 4 -25 15 -54 25 -42 12 -65 28 -97 64 -52 59
-61 82 -43 103 8 9 12 23 8 32 -3 9 4 33 17 54 15 24 19 38 11 41 -6 2 -22 12
-36 23 -30 24 -37 85 -11 95 10 4 15 20 15 44 0 21 7 43 15 50 21 17 19 30 -4
30 -20 0 -51 35 -51 57 0 8 13 12 35 11 43 -2 68 18 61 48 -10 37 3 54 39 54
64 0 95 12 110 41 22 42 19 96 -5 109 -11 6 -23 22 -26 35 -3 14 -13 25 -22
25 -12 0 -13 3 -4 12 9 9 16 7 31 -6 11 -10 38 -20 61 -23 33 -5 45 -2 65 17
25 24 75 136 75 170 0 13 7 20 19 20 36 0 66 66 68 150 1 41 2 78 2 81 2 14
143 100 190 116 80 25 113 76 136 207 10 56 19 135 20 177 2 73 4 79 47 140
25 35 62 99 81 142 36 77 36 77 20 122 -12 36 -22 49 -49 60 -19 8 -61 38 -93
66 l-58 53 -84 2 c-46 2 -92 4 -101 4 -11 1 -18 9 -18 23 -1 17 -14 28 -62 50
-55 25 -63 26 -78 12 -23 -21 -30 -19 -30 8 0 14 -11 28 -30 39 -25 14 -29 22
-24 42 4 17 0 28 -14 38 -11 7 -23 31 -27 53 -10 52 -12 56 -63 99 -38 31 -51
36 -95 36 -65 0 -152 43 -166 80 -5 15 -25 33 -48 45 -22 11 -44 28 -49 40 -5
11 -21 26 -36 33 -30 14 -35 27 -15 36 6 3 -10 3 -38 0 -27 -3 -53 -10 -56
-15 -3 -6 -21 -3 -42 6 -20 8 -52 15 -72 15 -42 0 -90 22 -99 46 -5 14 -12 10
-41 -22 -19 -21 -34 -50 -35 -63 0 -20 -2 -22 -15 -11 -11 9 -13 16 -5 24 5 5
10 22 10 38 0 15 7 31 15 35 8 5 11 14 7 20 -6 9 -20 4 -52 -17 -24 -16 -58
-32 -75 -36 -33 -7 -54 -29 -55 -56 0 -10 -13 -32 -28 -50 l-29 -31 -36 29
c-29 22 -45 28 -74 25 -21 -1 -46 -7 -57 -13 -41 -22 -106 48 -106 113 0 19 7
65 17 103 l16 68 -24 19 c-19 15 -42 19 -111 19 l-87 0 26 63 c14 34 34 87 45
117 12 30 25 60 29 66 6 8 -5 13 -37 18 -63 8 -98 -11 -116 -66 -14 -42 -16
-43 -87 -62 -84 -22 -107 -15 -144 43 -44 70 -47 106 -15 200 15 47 28 101 28
122 0 35 4 39 93 98 76 50 100 61 134 61 23 0 45 -4 48 -10 11 -17 48 -11 72
12 30 28 150 36 160 11 4 -11 15 -13 38 -9 25 5 36 1 55 -19 20 -22 23 -30 14
-53 -12 -30 -2 -81 23 -118 40 -62 68 5 58 140 l-6 91 48 52 c26 29 80 72 118
97 39 25 87 62 108 83 32 32 37 43 33 71 -3 23 -1 32 10 32 8 0 22 15 31 34 9
19 21 32 28 30 7 -3 26 12 43 33 22 29 45 43 85 56 29 9 61 17 69 17 21 0 42
26 29 35 -16 9 29 73 59 84 14 5 63 23 110 40 83 30 84 30 56 7 -39 -32 -30
-59 14 -46 18 5 37 14 44 19 6 5 32 15 58 21 26 7 54 21 64 31 9 10 25 19 36
19 13 0 18 7 18 25 0 15 -6 25 -14 25 -8 0 -23 -11 -34 -25 -27 -34 -85 -35
-107 -2 -14 22 -13 27 11 71 22 40 24 50 13 57 -23 15 -46 10 -117 -21 l-67
-30 35 30 c19 17 41 30 49 30 8 0 23 8 34 18 15 14 45 18 151 23 122 5 135 8
194 37 34 18 62 29 62 24 0 -4 -34 -41 -75 -82 -41 -41 -75 -78 -75 -82 0 -5
29 -8 64 -8 36 0 68 -5 71 -11 4 -6 13 -8 21 -5 7 3 18 -2 23 -11 8 -15 11
-15 35 0 21 14 24 21 16 41 -5 13 -6 33 -3 45 4 18 1 21 -23 21 -36 0 -61 42
-38 61 8 6 11 15 8 20 -3 5 4 22 15 38 20 27 20 31 5 75 -9 26 -25 51 -38 57
-11 6 -33 23 -48 37 -21 19 -25 29 -17 43 10 20 -8 159 -22 159 -4 0 -20 -11
-36 -24 -15 -13 -47 -33 -69 -44 -41 -21 -42 -21 -62 -2 -23 21 -20 57 6 77
13 11 11 14 -11 22 -15 6 -40 25 -56 43 -21 23 -33 30 -40 22 -7 -6 -33 -8
-67 -4 -55 6 -56 6 -80 -29 -13 -20 -24 -43 -24 -51 0 -9 -18 -34 -40 -55 -33
-32 -37 -41 -25 -48 18 -10 19 -27 4 -60 -12 -26 -101 -83 -139 -89 -21 -3
-27 -11 -39 -64 -12 -53 -18 -63 -51 -82 l-38 -21 -6 23 c-3 13 -9 31 -12 40
-4 12 -2 15 9 10 8 -3 18 -1 22 5 3 6 -1 11 -9 11 -21 0 -20 18 4 58 l20 32
-33 0 c-17 1 -50 9 -72 20 -22 11 -46 19 -52 20 -7 0 -13 4 -13 10 0 17 -50
43 -81 42 -27 -1 -29 2 -29 39 0 30 -4 39 -17 39 -37 0 55 73 158 125 58 29
111 60 118 69 8 9 22 16 31 16 26 0 110 37 147 66 17 13 35 24 39 24 13 0 -59
-71 -81 -80 -16 -7 -17 -9 -3 -9 9 -1 18 -8 20 -16 3 -13 9 -12 42 6 32 17 44
19 63 10 33 -15 63 -14 63 3 0 7 -20 30 -45 50 -50 41 -59 62 -20 44 19 -9 28
-9 37 0 7 7 21 12 33 12 27 0 85 36 85 53 0 8 9 22 20 32 14 13 17 22 10 29
-21 21 -8 26 73 26 66 -1 86 -4 105 -20 28 -24 21 -40 -18 -40 -30 0 -64 -25
-55 -41 10 -15 48 -10 69 10 31 29 60 31 64 4 3 -18 -6 -27 -42 -45 -31 -15
-46 -28 -46 -41 0 -18 -5 -19 -60 -14 -47 4 -65 2 -81 -12 -18 -15 -19 -18 -6
-29 12 -10 23 -9 56 4 40 16 43 16 62 -2 12 -11 27 -31 34 -45 11 -20 30 -30
84 -46 78 -23 88 -17 50 31 -26 33 -11 33 38 1 36 -25 37 -25 44 -6 4 10 16
24 25 29 19 10 19 11 -31 78 -7 10 -4 19 8 31 17 17 19 17 45 -15 29 -34 56
-42 66 -17 3 8 15 15 26 15 12 0 30 8 41 19 20 18 20 18 -17 50 -23 20 -44 31
-55 28 -28 -7 -45 19 -25 38 9 9 16 22 16 29 0 17 -33 46 -52 46 -9 0 -18 7
-22 15 -3 8 -16 15 -30 15 -15 0 -34 12 -52 32 -25 31 -32 33 -108 39 -87 7
-153 -6 -187 -37 -16 -15 -19 -15 -19 -2 0 9 10 23 23 31 21 16 22 16 1 16
-37 1 -108 -29 -146 -62 -30 -27 -35 -36 -27 -54 6 -17 16 -23 40 -23 24 0 30
-3 25 -16 -3 -9 -6 -17 -6 -19 0 -7 -98 -73 -118 -79 -27 -9 -31 18 -6 32 22
12 14 46 -13 50 -17 3 -22 11 -25 50 -6 58 2 69 55 77 23 4 60 18 82 31 l40
24 -72 0 c-67 0 -73 -2 -97 -30z"/>
<path d="M5126 5731 l-28 -19 22 -12 c12 -6 28 -9 36 -6 9 3 14 -1 14 -13 0
-10 11 -24 25 -31 14 -7 25 -18 25 -23 0 -11 66 -1 139 21 64 20 87 52 55 77
-10 8 -30 13 -44 10 -93 -16 -161 -17 -185 -1 -30 19 -24 20 -59 -3z"/>
<path d="M5750 5425 c-7 -9 -19 -14 -27 -11 -8 3 -28 -4 -45 -17 -37 -27 -53
-64 -37 -83 9 -11 8 -14 -2 -14 -9 -1 -6 -8 9 -19 12 -11 22 -24 22 -30 0 -6
11 -11 24 -11 18 0 27 -8 34 -29 10 -27 8 -29 -19 -35 -27 -5 -42 -26 -19 -26
20 0 9 -18 -15 -24 -32 -8 -32 -26 -1 -26 14 0 28 -4 31 -10 3 -5 0 -10 -8
-10 -13 0 -57 -40 -57 -52 0 -9 59 9 75 22 7 6 44 9 82 8 75 -2 98 6 89 29 -3
8 1 21 9 30 21 20 14 37 -16 43 -13 3 -25 11 -27 19 -4 19 -62 103 -81 118
-14 10 -14 13 2 30 24 27 21 43 -7 43 -29 0 -43 15 -22 23 17 7 41 47 28 47
-5 0 -15 -7 -22 -15z"/>
<path d="M5548 5244 c-8 -18 -17 -24 -31 -20 -26 6 -41 -34 -19 -52 15 -11 14
-14 -6 -28 -54 -38 -7 -61 69 -34 57 19 69 32 69 72 0 15 5 30 10 33 22 14 10
43 -21 49 -50 10 -59 7 -71 -20z"/>
<path d="M10736 3831 c-21 -40 -20 -70 4 -105 l19 -30 10 27 c19 48 21 71 13
101 -11 41 -28 43 -46 7z"/>
<path d="M2338 3730 c-16 -12 -28 -30 -28 -41 0 -26 15 -24 37 4 30 38 40 39
106 16 72 -25 97 -44 97 -73 0 -41 12 -46 83 -39 37 3 75 11 84 18 15 11 12
14 -19 24 -19 6 -48 25 -63 41 -35 36 -99 57 -198 65 -63 5 -75 3 -99 -15z"/>
<path d="M2775 3588 c7 -31 -4 -46 -39 -50 -50 -5 -44 -28 8 -28 25 0 46 -4
46 -10 0 -16 32 -11 45 7 8 10 32 18 69 21 31 2 56 8 56 13 0 4 -15 19 -33 33
-23 18 -44 25 -72 24 -22 -1 -50 2 -63 6 -20 7 -22 5 -17 -16z"/>
<path d="M10322 3603 c-12 -2 -27 -13 -32 -23 -25 -48 36 -71 66 -25 15 24 14
57 -3 54 -4 -1 -18 -4 -31 -6z"/>
<path d="M10808 3549 c-11 -6 -18 -22 -18 -42 0 -18 -7 -45 -15 -60 -18 -35
-9 -84 17 -98 14 -7 18 -17 14 -32 -3 -13 3 -31 14 -44 24 -30 30 -29 30 7 0
29 1 29 27 17 15 -6 44 -30 64 -52 32 -34 35 -41 22 -49 -10 -6 -25 -3 -43 8
-16 9 -31 16 -34 16 -14 0 -5 -51 12 -68 10 -10 21 -26 25 -35 7 -18 24 -21
51 -11 21 8 20 23 -1 46 -15 17 -15 20 -3 28 23 15 32 7 46 -41 13 -41 12 -45
-8 -60 -11 -9 -29 -14 -39 -12 -22 6 -54 -26 -63 -63 -6 -27 -5 -28 9 -10 8
11 25 20 39 22 20 2 25 -3 30 -31 4 -22 18 -42 36 -55 l30 -21 0 36 c0 29 4
35 18 33 11 -2 16 2 13 12 -1 8 -4 38 -5 67 -1 38 -7 58 -24 76 -12 13 -22 36
-22 51 0 40 -16 64 -50 71 -26 6 -29 10 -24 34 5 24 2 29 -23 39 -15 6 -39 12
-53 14 -21 3 -25 9 -28 40 -2 20 1 46 7 56 7 13 7 32 0 58 -14 51 -29 66 -51
53z"/>
<path d="M10667 2960 c-10 -21 -33 -48 -52 -60 -18 -11 -46 -35 -62 -53 -16
-18 -40 -37 -55 -44 -15 -7 -34 -26 -43 -44 -15 -28 -20 -31 -52 -26 -27 5
-34 3 -29 -8 3 -8 1 -17 -4 -20 -16 -10 -11 -58 10 -93 11 -18 20 -48 20 -66
0 -43 22 -60 70 -58 21 2 55 -4 76 -13 43 -18 77 -19 106 -4 16 9 19 17 14 44
-6 28 -2 38 24 65 22 22 30 40 30 65 0 29 4 36 25 41 30 7 31 14 5 47 -27 34
-25 75 5 119 14 20 25 43 25 50 0 12 -79 98 -90 98 -3 0 -13 -18 -23 -40z"/>
<path d="M9776 2913 c-13 -13 -5 -29 23 -45 17 -9 41 -34 55 -56 14 -22 34
-43 45 -47 11 -3 27 -18 35 -33 39 -75 69 -143 86 -195 20 -63 76 -125 140
-153 33 -15 35 -15 53 7 11 13 16 31 13 44 -3 12 3 38 14 58 l20 37 -25 0
c-14 0 -25 5 -25 10 0 6 -19 28 -41 50 -32 31 -39 43 -31 53 9 10 2 21 -31 48
-23 19 -59 45 -79 58 -21 12 -46 36 -55 53 -13 21 -45 43 -104 74 -48 23 -89
40 -93 37z"/>
<path d="M11005 2719 c-24 -14 -40 -16 -80 -9 -80 14 -91 12 -103 -15 -7 -14
-12 -37 -12 -50 0 -13 -9 -44 -20 -69 -15 -37 -17 -52 -9 -74 6 -15 11 -48 10
-74 -1 -49 8 -58 39 -38 11 7 14 25 13 70 -2 57 7 75 24 48 4 -7 8 -17 8 -23
3 -29 20 -71 34 -81 39 -30 55 26 24 88 -9 18 -20 41 -25 51 -7 14 -3 23 16
38 15 11 26 25 26 30 0 13 -47 11 -71 -3 -17 -11 -22 -10 -35 7 -34 46 4 89
58 65 70 -30 144 -10 136 37 -3 19 -4 19 -33 2z"/>
<path d="M11283 2623 c-13 -2 -23 -8 -23 -12 0 -11 34 -41 47 -41 14 0 48 -39
40 -46 -12 -12 23 -64 41 -61 23 3 153 -42 174 -60 25 -22 35 -93 14 -105 -24
-14 -19 -28 9 -28 14 0 48 -11 75 -25 69 -35 92 -32 141 15 23 22 45 40 50 40
4 0 29 -25 55 -55 35 -41 60 -59 96 -71 26 -8 53 -14 60 -12 6 2 -16 32 -49
67 -67 68 -84 101 -52 101 10 0 19 6 19 14 0 19 -47 56 -71 56 -12 0 -19 7
-19 19 0 11 -15 31 -32 44 -63 47 -243 127 -286 127 -8 0 -33 -21 -57 -47
l-43 -46 -36 39 c-29 31 -35 44 -30 67 6 27 5 27 -48 26 -29 -1 -63 -4 -75 -6z"/>
<path d="M10245 2373 c-48 -12 -60 -43 -16 -43 17 0 43 -11 61 -26 25 -21 50
-29 133 -41 56 -8 120 -21 141 -28 33 -12 46 -12 79 0 30 10 46 11 60 3 11 -5
45 -8 76 -6 31 3 69 1 86 -3 17 -5 43 -5 60 0 16 5 48 12 70 16 l40 6 -40 -27
c-22 -15 -41 -28 -41 -28 -1 -1 -5 -12 -9 -25 -6 -21 0 -18 47 22 30 25 67 51
83 57 27 10 28 13 12 21 -12 7 -35 6 -72 -2 -41 -9 -61 -9 -80 -1 -19 9 -32 8
-57 -2 -26 -11 -45 -12 -88 -4 -30 6 -82 12 -115 13 -110 3 -176 24 -130 41
26 10 5 24 -36 24 -22 0 -51 7 -65 17 -24 15 -25 15 -31 -5 -8 -32 -66 -30
-105 3 -16 14 -33 24 -36 24 -4 -1 -16 -4 -27 -6z"/>
<path d="M11303 2110 c6 -26 3 -30 -21 -35 -15 -4 -34 -10 -42 -14 -19 -10
-60 -82 -54 -93 3 -4 4 -8 2 -8 -2 0 -18 -4 -36 -9 -30 -9 -34 -7 -44 15 -22
47 -83 41 -90 -9 -2 -16 -9 -21 -25 -19 -13 2 -23 -2 -23 -8 0 -6 -16 -26 -35
-46 -28 -28 -36 -32 -41 -19 -5 13 -9 12 -25 -6 -11 -12 -19 -30 -19 -40 0
-40 -58 -86 -146 -118 -47 -17 -92 -31 -100 -31 -9 0 -36 -15 -62 -32 -26 -18
-54 -33 -62 -33 -10 0 -16 -13 -18 -42 -2 -23 -9 -47 -17 -53 -9 -8 -12 -22
-8 -41 4 -22 1 -33 -12 -43 -15 -11 -16 -16 -5 -35 7 -14 12 -70 13 -140 2
-95 -1 -124 -17 -159 -10 -23 -25 -42 -33 -42 -25 0 -14 -39 17 -55 41 -21 60
-19 123 15 48 25 68 30 127 30 39 0 70 4 70 10 0 32 202 95 302 93 87 -1 172
-66 152 -117 -11 -28 25 -32 49 -4 27 31 77 62 77 48 0 -5 -13 -22 -30 -37
-36 -32 -40 -52 -5 -29 31 21 34 20 28 -4 -3 -11 -23 -27 -44 -37 -41 -18 -48
-27 -25 -36 8 -3 24 5 37 19 32 34 42 30 36 -15 -7 -54 20 -96 70 -110 52 -15
78 -14 93 4 16 19 30 19 30 1 0 -7 6 -19 13 -25 11 -8 24 -3 58 23 26 20 60
36 83 39 21 3 41 9 45 14 32 49 175 212 194 222 41 22 107 146 137 256 l27
101 -28 39 c-15 22 -31 52 -34 67 -4 16 -16 34 -27 42 -12 9 -21 28 -23 48 -2
21 -16 48 -40 76 -39 45 -65 112 -65 168 0 52 -17 86 -39 79 -16 -5 -20 1 -26
37 -27 170 -49 169 -79 -7 -17 -98 -59 -185 -88 -185 -21 0 -69 28 -81 47 -4
7 -27 31 -52 54 l-43 41 29 44 c17 24 34 46 40 49 11 8 11 16 0 34 -7 11 -15
11 -43 1 -30 -11 -39 -10 -75 9 -23 11 -44 25 -48 31 -14 22 -27 9 -22 -20z"/>
<path d="M7829 2053 c-15 -16 -40 -49 -57 -74 -23 -35 -45 -52 -86 -70 -68
-29 -93 -72 -76 -129 16 -54 12 -90 -14 -134 -15 -26 -25 -60 -26 -91 -4 -71
-3 -73 26 -100 59 -55 130 -16 158 87 26 98 55 197 78 266 11 34 17 70 14 78
-4 11 1 18 14 21 17 5 20 14 20 67 -1 33 -6 71 -13 84 l-13 22 -25 -27z"/>
<path d="M12656 972 c-3 -20 -6 -49 -6 -64 0 -43 -30 -96 -62 -109 -26 -11
-27 -13 -13 -29 21 -23 19 -36 -7 -54 -28 -20 -38 -20 -38 -1 0 13 -4 14 -21
5 -11 -6 -25 -9 -32 -7 -7 2 -30 -10 -52 -27 -22 -18 -70 -48 -106 -68 -36
-20 -107 -61 -158 -93 l-93 -57 31 -19 c31 -19 32 -19 69 0 21 11 64 39 97 64
33 24 74 48 92 51 19 5 35 15 38 27 4 10 21 26 38 35 18 9 42 25 54 36 13 12
38 21 60 22 44 2 128 54 138 86 3 11 15 20 25 20 19 0 80 54 80 72 0 6 -8 7
-17 3 -33 -13 -48 -10 -58 13 -5 12 -13 22 -18 22 -5 0 -5 20 -2 44 6 38 4 46
-13 55 -17 9 -20 6 -26 -27z"/>
<path d="M11381 675 c-26 -83 -26 -83 2 -87 38 -7 93 31 122 83 l26 49 -46 -6
c-35 -5 -50 -3 -64 11 -19 16 -20 15 -40 -50z"/>
</g>
</svg>
